<?xml version="1.0" encoding="UTF-8" standalone="no"?>
<svg
   version="1.0"
   width="365pt"
   height="365pt"
   viewBox="0 0 365 365"
   preserveAspectRatio="xMidYMid"
   id="svg24"
   sodipodi:docname="settings.svg"
   inkscape:version="1.2.2 (732a01da63, 2022-12-09)"
   xmlns:inkscape="http://www.inkscape.org/namespaces/inkscape"
   xmlns:sodipodi="http://sodipodi.sourceforge.net/DTD/sodipodi-0.dtd"
   xmlns="http://www.w3.org/2000/svg"
   xmlns:svg="http://www.w3.org/2000/svg">
  <defs
     id="defs28" />
  <sodipodi:namedview
     id="namedview26"
     pagecolor="#ffffff"
     bordercolor="#111111"
     borderopacity="1"
     inkscape:showpageshadow="0"
     inkscape:pageopacity="0"
     inkscape:pagecheckerboard="1"
     inkscape:deskcolor="#d1d1d1"
     inkscape:document-units="pt"
     showgrid="false"
     inkscape:zoom="1.0096154"
     inkscape:cx="246.13334"
     inkscape:cy="324.87619"
     inkscape:window-width="1366"
     inkscape:window-height="705"
     inkscape:window-x="-8"
     inkscape:window-y="-8"
     inkscape:window-maximized="1"
     inkscape:current-layer="svg24" />
  <metadata
     id="metadata16">
Created by potrace 1.15, written by Peter Selinger 2001-2017
</metadata>
  <g
     transform="matrix(0.09994524,0,0,-0.09990743,-913.79929,778.74084)"
     fill="#000000"
     stroke="none"
     id="g22" />
  <path
     style="fill:#ffffff;stroke-width:0.990476"
     d="m 230.86459,485.45731 c -2.24717,-0.62838 -2.59966,-1.78095 -5.80097,-18.96793 -1.87464,-10.0644 -3.73531,-18.65108 -4.13483,-19.08153 -0.74764,-0.80549 -24.72464,-4.1691 -25.19101,-3.53392 -0.14322,0.19506 -3.70809,6.8175 -7.92194,14.71655 -4.21386,7.89905 -8.49855,15.4713 -9.52154,16.82722 l -1.85997,2.46531 -11.20765,-3.71132 c -6.1642,-2.04123 -11.82436,-4.10519 -12.57814,-4.58656 -1.15638,-0.73849 -1.04031,-3.26401 0.74285,-16.16399 2.94032,-21.27117 2.87181,-22.87632 -1.10567,-25.90406 -1.77048,-1.34772 -6.51264,-4.02711 -10.53814,-5.95419 -5.59447,-2.67817 -7.74919,-3.2736 -9.14438,-2.52691 -1.00391,0.53727 -7.56133,6.28451 -14.57206,12.77163 l -12.74677,11.79476 -10.560503,-7.6107 c -10.021612,-7.22235 -10.533469,-7.76235 -10.030704,-10.58214 0.29139,-1.63429 4.1109,-9.60198 8.487799,-17.70598 l 7.957998,-14.73457 -2.256146,-2.59877 C 93.675072,384.37159 83.684117,374.4 82.881587,374.4 c -0.476729,0 -8.23355,2.97079 -17.237379,6.60174 -12.201431,4.92044 -16.768452,6.35078 -17.932803,5.61632 -1.609323,-1.01513 -15.010896,-19.64779 -15.044518,-20.9169 -0.01036,-0.39088 6.224473,-6.72782 13.855175,-14.08211 l 13.874004,-13.37143 -5.241257,-11.39047 -5.241258,-11.39048 -6.880584,0.29699 c -3.784323,0.16335 -12.150043,0.6158 -18.59049,1.00545 -8.014419,0.48486 -11.990864,0.3699 -12.600183,-0.36428 -1.03883,-1.25172 -5.8962668,-20.79711 -5.8981542,-23.73304 -0.00102,-1.58987 3.3166809,-3.65025 16.3415742,-10.14853 C 40.90775,273.2325 39.347544,275.52404 37.620751,260 c -0.810752,-7.28874 -1.403124,-9.27906 -3.248506,-10.91468 -1.335042,-1.18329 -8.672512,-3.77185 -17.96319,-6.33718 L 0.70280487,238.41137 1.2818574,226.8947 c 0.8773618,-17.44969 -0.33492145,-16.19728 17.6857206,-18.27128 22.795849,-2.62361 20.085325,-0.99604 23.063284,-13.84869 1.407059,-6.07277 2.554302,-11.78343 2.549428,-12.69037 -0.0094,-1.74986 -3.694755,-4.65575 -18.79549,-14.82018 -5.157407,-3.47149 -9.748991,-6.57519 -10.203519,-6.8971 -0.753703,-0.5338 8.404887,-23.12921 10.118484,-24.9636 0.404345,-0.43284 7.824455,0.80717 16.489133,2.75559 8.664678,1.94842 16.719152,3.30639 17.898832,3.0177 2.13681,-0.5229 15.203833,-18.60893 15.193516,-21.02929 -0.0028,-0.65222 -4.685055,-7.45202 -10.405055,-15.11067 -5.72,-7.658649 -10.4,-14.296971 -10.4,-14.751826 0,-0.454855 4.146313,-5.215845 9.214029,-10.579978 l 9.214031,-9.752968 13.319303,8.25122 c 7.325617,4.538172 14.274286,8.875998 15.441486,9.639615 1.97854,1.294416 2.79981,0.848547 12.13334,-6.587162 5.50612,-4.386557 10.01114,-8.711982 10.01114,-9.612057 0,-0.900074 -2.28224,-9.163009 -5.07165,-18.362076 -2.78941,-9.199068 -4.90655,-16.850988 -4.70476,-17.004265 0.20179,-0.153278 4.15546,-2.416015 8.78594,-5.028303 4.63047,-2.612289 9.84204,-5.606812 11.58126,-6.654497 l 3.16222,-1.904879 11.45108,14.407564 c 6.29809,7.924161 11.78366,14.398167 12.19016,14.38668 0.4065,-0.01149 6.08766,-1.932045 12.6248,-4.267908 l 11.88572,-4.247026 0.49524,-18.432419 c 0.27238,-10.137831 0.71928,-18.6555993 0.99311,-18.9283743 0.87216,-0.8688154 24.66925,-4.86415749 25.97866,-4.3616108 0.69123,0.2652967 3.93108,7.6644657 7.19965,16.4425981 l 5.94286,15.960241 5.54308,0.01341 c 3.04869,0.0073 9.51553,0.295378 14.37074,0.640012 l 8.82767,0.626606 4.84375,-13.73562 C 267.361,0.06192862 266.8455,0.98695717 271.15615,1.0118737 c 4.77978,0.027628 20.85518,2.4407326 21.66691,3.2524541 0.34274,0.3427448 0.84865,8.8506682 1.12422,18.9064982 l 0.50105,18.283326 11.72322,4.148241 c 7.76328,2.74702 12.55344,3.93987 14.18103,3.53137 2.55148,-0.640378 4.2614,-2.529878 16.90658,-18.68201 l 7.5646,-9.662538 10.90535,5.578224 c 5.99794,3.068024 11.13972,6.188977 11.42616,6.935451 0.28646,0.746475 -1.13982,7.041558 -3.16948,13.989075 -2.02967,6.947518 -4.33861,15.045948 -5.13098,17.996513 l -1.44067,5.364662 3.20348,2.559147 c 6.01651,4.806379 17.14345,11.968666 18.59388,11.968666 0.79635,0 7.99117,-4.234286 15.9885,-9.409524 7.99734,-5.175238 14.97687,-9.409524 15.51011,-9.409524 1.40242,0 18.16608,17.342994 18.16608,18.793884 0,0.671218 -4.93087,7.951674 -10.95751,16.178791 -6.03971,8.24498 -10.77549,15.64494 -10.55194,16.4881 0.22307,0.84133 3.38139,6.12504 7.01849,11.74157 5.00882,7.73476 7.02782,10.09354 8.32337,9.72405 7.17367,-2.04588 34.52464,-7.60591 36.22113,-7.36319 1.632,0.23349 3.00175,2.35899 5.94027,9.21775 6.3144,14.73841 6.59078,13.70368 -5.93745,22.23004 -16.91594,11.51252 -19.16306,13.53179 -19.1494,17.2077 0.011,2.95083 4.42119,22.2777 5.27942,23.13593 0.21535,0.21536 9.01029,1.27776 19.54429,2.36089 10.534,1.08312 19.44599,2.4438 19.8044,3.02373 1.02347,1.65601 2.14153,24.82838 1.23701,25.63768 -0.4456,0.39869 -8.83303,2.86943 -18.63874,5.49052 -9.80572,2.62109 -17.96554,4.86158 -18.13295,4.97886 -0.6781,0.47505 -3.38895,25.15342 -2.90234,26.42152 0.28864,0.75219 8.14452,4.85592 17.45749,9.11939 9.31297,4.26349 17.34926,8.25372 17.8584,8.86721 0.59214,0.71348 -0.20577,5.69785 -2.21427,13.83202 l -3.13998,12.71659 -3.96794,-0.54049 c -7.10082,-0.96723 -33.8897,-2.83527 -35.59846,-2.48235 -2.18893,0.45208 -9.47424,16.8361 -9.47424,21.30672 0,3.01507 1.50616,4.96541 13.37043,17.31357 7.87019,8.19118 13.0942,14.38548 12.69897,15.05763 -0.3693,0.62804 -3.48152,5.49664 -6.91606,10.81913 l -6.2446,9.67723 -3.23532,-1.31541 c -1.77943,-0.72346 -10.26751,-4.16537 -18.86239,-7.64868 l -15.62706,-6.33329 -8.88723,8.84604 c -4.88797,4.86533 -8.88722,9.3945 -8.88722,10.06482 0,0.67034 4.01143,8.73523 8.91429,17.92199 4.90286,9.18676 8.91429,17.15428 8.91429,17.70559 0,0.91298 -15.97804,14.57582 -19.06793,16.30501 -1.3277,0.74303 -4.72886,-1.91338 -21.36397,-16.68589 -4.43252,-3.93622 -9.15831,-7.43264 -10.50174,-7.76983 -1.8007,-0.45194 -5.05989,0.75568 -12.40211,4.5953 -8.72651,4.56356 -9.95766,5.52546 -9.94467,7.76983 0.008,1.40881 1.12242,9.91574 2.47619,18.90428 1.35375,8.98855 2.46137,16.89092 2.46137,17.56083 0,1.58491 -5.35101,4.26583 -16.01932,8.02591 -6.47669,2.28272 -8.81561,2.73659 -9.50454,1.84437 -0.5026,-0.65089 -4.56622,-7.64629 -9.03029,-15.54534 -4.46407,-7.89905 -8.90248,-15.39407 -9.86313,-16.65561 l -1.74665,-2.29372 -11.65728,2.17249 c -9.89984,1.84497 -11.77552,2.48941 -12.44164,4.27466 -0.43139,1.1562 -2.04198,9.39644 -3.57907,18.31166 -1.54496,8.96083 -3.40802,16.82277 -4.16619,17.58095 -1.01088,1.01087 -4.15248,1.34551 -11.94836,1.27274 -5.81727,-0.0543 -11.65351,-0.39979 -12.96942,-0.76777 z m 42.50684,-105.4761 c 47.87296,-11.09687 86.68281,-46.70889 102.53449,-94.08593 5.51617,-16.48659 6.69629,-25.83892 6.1421,-48.67623 -0.41949,-17.28706 -0.80076,-20.94731 -2.99413,-28.74485 -7.40811,-26.3363 -18.35239,-45.23309 -36.70792,-63.38126 -6.06743,-5.99889 -14.452,-13.24495 -18.63241,-16.10235 -14.88384,-10.17347 -34.61778,-18.60108 -52.90098,-22.59197 -11.08185,-2.41897 -45.33579,-2.47742 -55.71842,-0.0951 -24.27112,5.56914 -48.39412,18.32827 -66.73261,35.29616 -18.69665,17.29928 -34.94054,46.28895 -40.53631,72.34315 -2.98139,13.88153 -3.26024,42.37872 -0.54604,55.8027 4.02855,19.9246 14.00906,42.36711 25.86383,58.15837 20.51924,27.33283 52.41573,47.04991 85.75221,53.00841 9.94169,1.77696 45.4085,1.17075 54.47619,-0.93113 z"
     id="path196"
     transform="scale(0.75)"
     sodipodi:insensitive="true" />
  <path
     style="fill:#ffffff;stroke-width:0.990476"
     d="m 231.27619,362.50355 c -29.42715,-2.10633 -60.64085,-18.63771 -80.09989,-42.42246 -20.17398,-24.65861 -30.67318,-58.04878 -27.48778,-87.41827 2.38884,-22.02517 8.71704,-40.33087 19.58636,-56.65788 20.5221,-30.82659 54.95288,-51.20655 91.34166,-54.06615 34.01179,-2.6728 68.75185,10.37402 93.64081,35.16732 18.41793,18.34715 29.3574,38.03309 34.33619,61.78913 2.5915,12.36521 3.03965,31.26483 1.00993,42.59048 -6.76278,37.73548 -31.87299,71.90218 -64.9749,88.40935 -21.75743,10.84993 -41.16441,14.48296 -67.35238,12.60848 z m 23.53101,-65.82291 c 18.30914,-3.87987 33.77756,-17.87991 39.98067,-36.1854 2.59167,-7.64806 2.59084,-26.03238 -0.002,-33.67619 -6.29545,-18.56413 -19.52201,-31.61906 -36.51986,-36.04643 -8.34195,-2.17281 -20.25496,-2.93168 -26.83472,-1.7094 -16.04292,2.98019 -32.18552,16.72825 -39.09843,33.29869 -3.30042,7.9112 -4.39611,13.31851 -4.41543,21.79047 -0.0782,34.2727 32.45946,59.82437 66.88975,52.52826 z"
     id="path198"
     transform="scale(0.75)"
     sodipodi:insensitive="true" />
</svg>
