<?xml version="1.0" encoding="UTF-8" standalone="no"?>
<!-- Uploaded to: SVG Repo, www.svgrepo.com, Generator: SVG Repo Mixer Tools -->

<svg
   fill="#000000"
   width="800px"
   height="800px"
   viewBox="0 0 24 24"
   version="1.1"
   id="svg4508"
   sodipodi:docname="settingsSave.svg"
   inkscape:version="1.2.2 (732a01da63, 2022-12-09)"
   xmlns:inkscape="http://www.inkscape.org/namespaces/inkscape"
   xmlns:sodipodi="http://sodipodi.sourceforge.net/DTD/sodipodi-0.dtd"
   xmlns="http://www.w3.org/2000/svg"
   xmlns:svg="http://www.w3.org/2000/svg">
  <defs
     id="defs4512" />
  <sodipodi:namedview
     id="namedview4510"
     pagecolor="#ffffff"
     bordercolor="#111111"
     borderopacity="1"
     inkscape:showpageshadow="0"
     inkscape:pageopacity="0"
     inkscape:pagecheckerboard="1"
     inkscape:deskcolor="#d1d1d1"
     showgrid="false"
     inkscape:zoom="0.65625"
     inkscape:cx="127.2381"
     inkscape:cy="400.7619"
     inkscape:window-width="1366"
     inkscape:window-height="705"
     inkscape:window-x="-8"
     inkscape:window-y="-8"
     inkscape:window-maximized="1"
     inkscape:current-layer="svg4508" />
  <g
     id="Save_Up_2"
     data-name="Save Up 2"
     style="stroke:#000000;stroke-opacity:1;stroke-width:0.99;stroke-dasharray:none;fill:#000000;fill-opacity:1">
    <g
       id="g4505"
       style="stroke:#000000;stroke-opacity:1;stroke-width:0.99;stroke-dasharray:none;fill:#000000;fill-opacity:1">
      <path
         d="M18.437,20.937H5.563a2.372,2.372,0,0,1-2.5-2.211v-11a2.372,2.372,0,0,1,2.5-2.212h.462a.5.5,0,0,1,0,1H5.563a1.381,1.381,0,0,0-1.5,1.212v11a1.38,1.38,0,0,0,1.5,1.211H18.437a1.38,1.38,0,0,0,1.5-1.211v-11a1.381,1.381,0,0,0-1.5-1.212h-.462a.5.5,0,0,1,0-1h.462a2.372,2.372,0,0,1,2.5,2.212v11A2.372,2.372,0,0,1,18.437,20.937Z"
         id="path4501"
         style="stroke:#000000;stroke-opacity:1;stroke-width:0.99;stroke-dasharray:none;fill:#000000;fill-opacity:1" />
      <path
         d="M8.645,6.213l3-3a.5.5,0,0,1,.35-.15.508.508,0,0,1,.36.15l3,3a.5.5,0,0,1-.71.71l-2.14-2.14v8.47a.508.508,0,0,1-.5.5.5.5,0,0,1-.5-.5V4.763l-2.15,2.16a.5.5,0,0,1-.71-.71Z"
         id="path4503"
         style="stroke:#000000;stroke-opacity:1;stroke-width:0.99;stroke-dasharray:none;fill:#000000;fill-opacity:1" />
    </g>
  </g>
</svg>
