<?xml version="1.0" encoding="UTF-8" standalone="no"?>
<svg
   width="16"
   height="16"
   fill="currentColor"
   class="bi bi-trash"
   viewBox="0 0 16 16"
   version="1.1"
   id="svg16"
   sodipodi:docname="trash.svg"
   inkscape:version="1.2.2 (732a01da63, 2022-12-09)"
   xmlns:inkscape="http://www.inkscape.org/namespaces/inkscape"
   xmlns:sodipodi="http://sodipodi.sourceforge.net/DTD/sodipodi-0.dtd"
   xmlns="http://www.w3.org/2000/svg"
   xmlns:svg="http://www.w3.org/2000/svg">
  <defs
     id="defs20" />
  <sodipodi:namedview
     id="namedview18"
     pagecolor="#ffffff"
     bordercolor="#111111"
     borderopacity="1"
     inkscape:showpageshadow="0"
     inkscape:pageopacity="0"
     inkscape:pagecheckerboard="1"
     inkscape:deskcolor="#d1d1d1"
     showgrid="false"
     inkscape:zoom="32.8125"
     inkscape:cx="7.9847619"
     inkscape:cy="3.8095238"
     inkscape:window-width="1366"
     inkscape:window-height="705"
     inkscape:window-x="-8"
     inkscape:window-y="-8"
     inkscape:window-maximized="1"
     inkscape:current-layer="svg16" />
  <path
     style="fill:#aa0000;stroke:none;stroke-width:0.460742;stroke-linecap:round;stroke-linejoin:round;paint-order:markers stroke fill"
     d="M 4.7695238,14.972971 C 3.9178579,14.850889 3.254,14.244916 3.0668354,13.418746 3.0220845,13.221209 3.0171429,12.74197 3.0171429,8.5995675 V 3.9997391 l -0.3733334,-0.0132 C 2.350526,3.9761698 2.2399222,3.9596264 2.1279796,3.9093854 1.9374589,3.8238778 1.7195021,3.6180492 1.6201297,3.429795 L 1.5390476,3.2761905 V 2.4990476 1.7219048 L 1.6211714,1.5662446 C 1.7234865,1.3723131 1.9660029,1.1508617 2.1563672,1.0775361 2.289659,1.026194 2.4453871,1.021127 4.1500943,1.0126659 l 1.849142,-0.00918 0.033918,-0.15888672 C 6.0850703,0.60140251 6.1752034,0.44325952 6.3561548,0.27788011 6.6399339,0.01852215 6.6604882,0.0152381 8,0.0152381 c 1.3395118,0 1.3600661,0.0032841 1.6438452,0.26264201 0.1809514,0.16537941 0.2710845,0.3235224 0.3230007,0.56672097 l 0.033918,0.15888672 1.849142,0.00918 c 1.704707,0.00846 1.860435,0.013528 1.993727,0.06487 0.190364,0.073326 0.432881,0.294777 0.535195,0.4887085 l 0.08212,0.1556602 V 2.4990476 3.2761905 L 14.37987,3.429795 c -0.09937,0.1882542 -0.317329,0.3940828 -0.50785,0.4795904 -0.111901,0.050222 -0.222535,0.066784 -0.515268,0.077135 l -0.372771,0.013181 -0.0082,4.6972922 -0.0082,4.6972924 -0.08166,0.22354 c -0.1813,0.496311 -0.525346,0.901099 -0.954532,1.12306 -0.488878,0.252829 -0.20816,0.235247 -3.8400004,0.24051 -1.7767619,0.0026 -3.2716191,-0.0012 -3.3219048,-0.0084 z m 6.6652152,-1.054497 c 0.217599,-0.10685 0.427547,-0.336132 0.51029,-0.557282 0.06212,-0.166023 0.06259,-0.201932 0.06259,-4.7495507 0,-4.1503104 -0.0045,-4.5840067 -0.04821,-4.6007616 -0.06301,-0.02418 -7.8558114,-0.02418 -7.9188242,0 -0.043663,0.016755 -0.048207,0.4504512 -0.048207,4.6007616 0,4.5476187 4.732e-4,4.5835277 0.06259,4.7495507 0.1109874,0.296641 0.4022932,0.554472 0.7109768,0.629279 0.052252,0.01266 1.5350041,0.02084 3.2950041,0.01818 l 3.1999993,-0.0048 z M 13.500952,2.4990476 V 1.9809524 H 8 2.4990476 V 2.4990476 3.0171429 H 8 13.500952 Z"
     id="path387" />
  <path
     style="fill:#aa0000;stroke:none;stroke-width:0.460742;stroke-linecap:round;stroke-linejoin:round;paint-order:markers stroke fill"
     d="M 5.353301,12.451137 C 5.2149047,12.401375 5.1073521,12.307154 5.0610209,12.195085 5.0373528,12.137835 5.0299768,11.193226 5.0357133,8.9540681 l 0.0081,-3.1602178 0.1058016,-0.1091539 C 5.3367015,5.4916781 5.6010853,5.4681719 5.7906737,5.6277 5.9849029,5.7911332 5.9733333,5.5765865 5.9733333,9.0149321 v 3.1360539 l -0.068675,0.101907 c -0.1269844,0.188432 -0.352816,0.269631 -0.5513573,0.198244 z"
     id="path389" />
  <path
     style="fill:#aa0000;stroke:none;stroke-width:0.460742;stroke-linecap:round;stroke-linejoin:round;paint-order:markers stroke fill"
     d="M 7.8532207,12.451436 C 7.789254,12.428429 7.7089928,12.384333 7.6748625,12.353446 7.5216166,12.21476 7.527619,12.351607 7.527619,8.9964965 V 5.8604424 L 7.5961905,5.7596901 C 7.7108777,5.5911797 7.8165812,5.5314286 8,5.5314286 c 0.1834188,0 0.2891223,0.059751 0.4038095,0.2282615 l 0.068572,0.1007523 v 3.1452719 3.1452717 l -0.068675,0.101907 c -0.126764,0.188105 -0.352824,0.269638 -0.5504858,0.198543 z"
     id="path391" />
  <path
     style="fill:#aa0000;stroke:none;stroke-width:0.460742;stroke-linecap:round;stroke-linejoin:round;paint-order:markers stroke fill"
     d="m 10.352268,12.451436 c -0.136382,-0.04905 -0.22388,-0.122178 -0.283007,-0.236517 -0.06532,-0.126321 -0.06338,-6.2958508 0.002,-6.4223261 0.158641,-0.3067768 0.535714,-0.358997 0.779103,-0.1078964 l 0.105801,0.109154 0.008,3.1779545 0.008,3.177954 -0.06909,0.10252 c -0.127173,0.188713 -0.35298,0.270345 -0.550899,0.199157 z"
     id="path393" />
</svg>
